<svg width="43" height="43" viewBox="0 0 43 43" fill="none" xmlns="http://www.w3.org/2000/svg">
<path d="M21.3994 0.00561523C15.5876 0.00561523 14.8589 0.0302493 12.5764 0.134392C10.2987 0.238364 8.74312 0.60006 7.38188 1.1291C5.97468 1.67597 4.78129 2.40769 3.59164 3.59734C2.40199 4.78699 1.67027 5.98038 1.1234 7.38758C0.59436 8.74874 0.232664 10.3043 0.128692 12.582C0.0245491 14.8645 0 15.5933 0 21.405C0 27.2167 0.0245491 27.9454 0.128692 30.2279C0.232664 32.5056 0.59436 34.0612 1.1234 35.4224C1.67027 36.8296 2.40199 38.023 3.59164 39.2127C4.78129 40.4024 5.97468 41.1341 7.38188 41.6809C8.74312 42.2099 10.2987 42.5717 12.5764 42.6756C14.8589 42.7797 15.5876 42.8043 21.3994 42.8043C27.2111 42.8043 27.9398 42.7797 30.2223 42.6756C32.5 42.5717 34.0556 42.2099 35.4168 41.6809C36.824 41.1341 38.0173 40.4024 39.2071 39.2127C40.3967 38.023 41.1285 36.8296 41.6753 35.4224C42.2043 34.0612 42.5661 32.5056 42.6699 30.2279C42.7741 27.9454 42.7987 27.2167 42.7987 21.405C42.7987 15.5933 42.7741 14.8645 42.6699 12.582C42.5661 10.3043 42.2043 8.74874 41.6753 7.38758C41.1285 5.98038 40.3967 4.78699 39.2071 3.59734C38.0173 2.40769 36.824 1.67597 35.4168 1.1291C34.0556 0.60006 32.5 0.238364 30.2223 0.134392C27.9398 0.0302493 27.2111 0.00561523 21.3994 0.00561523ZM21.3994 3.86143C27.1132 3.86143 27.7901 3.88318 30.0465 3.98613C32.133 4.08136 33.266 4.42997 34.0201 4.72295C35.019 5.11114 35.7318 5.57494 36.4806 6.32373C37.2295 7.07252 37.6932 7.78546 38.0814 8.78425C38.3745 9.5383 38.7231 10.6714 38.8182 12.7578C38.9212 15.0143 38.943 15.6911 38.943 21.405C38.943 27.1188 38.9212 27.7957 38.8182 30.0522C38.7231 32.1386 38.3745 33.2717 38.0814 34.0257C37.6932 35.0246 37.2295 35.7374 36.4806 36.4862C35.7318 37.2351 35.019 37.6988 34.0201 38.087C33.266 38.3801 32.133 38.7287 30.0465 38.8238C27.7904 38.9268 27.1136 38.9486 21.3994 38.9486C15.6851 38.9486 15.0084 38.9268 12.7522 38.8238C10.6658 38.7287 9.53269 38.3801 8.77863 38.087C7.77976 37.6988 7.06691 37.2351 6.31803 36.4862C5.56924 35.7374 5.10544 35.0246 4.71733 34.0257C4.42427 33.2717 4.07566 32.1386 3.98043 30.0522C3.87748 27.7957 3.85573 27.1188 3.85573 21.405C3.85573 15.6911 3.87748 15.0143 3.98043 12.7578C4.07566 10.6714 4.42427 9.5383 4.71733 8.78425C5.10544 7.78546 5.56924 7.07252 6.31803 6.32373C7.06691 5.57494 7.77976 5.11114 8.77863 4.72295C9.53269 4.42997 10.6658 4.08136 12.7522 3.98613C15.0087 3.88318 15.6855 3.86143 21.3994 3.86143Z" fill="#FFFCF4"/>
<path d="M21.401 28.5354C17.4614 28.5354 14.2678 25.3418 14.2678 21.4023C14.2678 17.4627 17.4614 14.2691 21.401 14.2691C25.3405 14.2691 28.5341 17.4627 28.5341 21.4023C28.5341 25.3418 25.3405 28.5354 21.401 28.5354ZM21.401 10.4134C15.3319 10.4134 10.4121 15.3332 10.4121 21.4023C10.4121 27.4713 15.3319 32.3911 21.401 32.3911C27.47 32.3911 32.3898 27.4713 32.3898 21.4023C32.3898 15.3332 27.47 10.4134 21.401 10.4134Z" fill="#FFFCF4"/>
<path d="M35.3898 9.98128C35.3898 11.3995 34.24 12.5492 32.8218 12.5492C31.4036 12.5492 30.2539 11.3995 30.2539 9.98128C30.2539 8.56304 31.4036 7.41339 32.8218 7.41339C34.24 7.41339 35.3898 8.56304 35.3898 9.98128Z" fill="#FFFCF4"/>
</svg>
