<svg width="44" height="43" viewBox="0 0 44 43" fill="none" xmlns="http://www.w3.org/2000/svg">
<path d="M26.0344 32.7448V28.3695C26.0344 27.4406 25.765 26.9761 25.2263 26.9761C24.9104 26.9761 24.6039 27.1247 24.3066 27.422V33.6644C24.6039 33.9617 24.9104 34.1103 25.2263 34.1103C25.765 34.1103 26.0344 33.6551 26.0344 32.7448ZM31.1621 29.3449H33.0014V28.3974C33.0014 27.4499 32.6948 26.9761 32.0818 26.9761C31.4687 26.9761 31.1621 27.4499 31.1621 28.3974V29.3449ZM15.2495 21.932V23.8828H13.0201V35.6709H10.9579V23.8828H8.7842V21.932H15.2495ZM20.851 25.4434V35.6709H18.9838V34.5562C18.2593 35.3922 17.5533 35.8102 16.8659 35.8102C16.2528 35.8102 15.8626 35.5501 15.6954 35.0299C15.584 34.7327 15.5282 34.2311 15.5282 33.5251V25.4434H17.3675V32.9677C17.3675 33.4136 17.3768 33.6551 17.3954 33.6923C17.414 33.971 17.5533 34.1103 17.8134 34.1103C18.185 34.1103 18.5751 33.8223 18.9838 33.2464V25.4434H20.851ZM27.8737 28.5367V32.6054C27.8737 33.5715 27.8087 34.2496 27.6786 34.6398C27.4557 35.4201 26.9634 35.8102 26.2016 35.8102C25.5514 35.8102 24.9197 35.4294 24.3066 34.6677V35.6709H22.4395V21.932H24.3066V26.4188C24.9011 25.6756 25.5328 25.304 26.2016 25.304C26.9634 25.304 27.4557 25.6942 27.6786 26.4745C27.8087 26.8646 27.8737 27.5521 27.8737 28.5367ZM34.8685 32.1317V32.3825C34.8685 32.9213 34.85 33.3207 34.8128 33.5808C34.7571 33.9895 34.6177 34.3611 34.3948 34.6955C33.8932 35.4387 33.15 35.8102 32.1654 35.8102C31.1993 35.8102 30.4468 35.4572 29.9081 34.7513C29.5179 34.2496 29.3228 33.4508 29.3228 32.3546V28.7597C29.3228 27.6635 29.5086 26.8646 29.8802 26.363C30.419 25.657 31.1621 25.304 32.1096 25.304C33.0571 25.304 33.7817 25.657 34.2833 26.363C34.6735 26.8832 34.8685 27.6821 34.8685 28.7597V30.8776H31.1621V32.689C31.1621 33.6365 31.4779 34.1103 32.1096 34.1103C32.5555 34.1103 32.8342 33.8688 32.9457 33.3857C32.9457 33.3672 32.9503 33.3021 32.9596 33.1907C32.9689 33.0792 32.9735 32.9259 32.9735 32.7308V32.1317H34.8685ZM22.3001 9.16854V13.5159C22.3001 14.4634 22.0029 14.9372 21.4084 14.9372C20.8138 14.9372 20.5166 14.4634 20.5166 13.5159V9.16854C20.5166 8.20245 20.8138 7.71941 21.4084 7.71941C22.0029 7.71941 22.3001 8.20245 22.3001 9.16854ZM37.1537 29.0383C37.1537 25.7499 36.9772 23.3347 36.6242 21.7927C36.4384 20.9752 36.039 20.2925 35.4259 19.7444C34.8128 19.1963 34.1068 18.8759 33.3079 18.783C30.7813 18.5043 26.9541 18.3649 21.8264 18.3649C16.7173 18.3649 12.8994 18.5043 10.3727 18.783C9.55521 18.8759 8.84458 19.1963 8.24077 19.7444C7.63697 20.2925 7.24217 20.9752 7.05639 21.7927C6.68481 23.409 6.49903 25.8242 6.49903 29.0383C6.49903 32.3082 6.68481 34.7234 7.05639 36.284C7.24217 37.0829 7.63697 37.761 8.24077 38.3184C8.84458 38.8757 9.54592 39.2008 10.3448 39.2937C12.8901 39.5724 16.7173 39.7117 21.8264 39.7117C26.9355 39.7117 30.7627 39.5724 33.3079 39.2937C34.1068 39.2008 34.8082 38.8757 35.412 38.3184C36.0158 37.761 36.4106 37.0829 36.5964 36.284C36.9679 34.7234 37.1537 32.3082 37.1537 29.0383ZM16.1135 10.8963L18.6216 2.64745H16.5315L15.1102 8.08169L13.6332 2.64745H11.4595L12.1283 4.57033L12.7693 6.49322C13.4196 8.40681 13.8469 9.87452 14.0512 10.8963V16.4978H16.1135V10.8963ZM24.1673 13.1536V9.53082C24.1673 8.45326 23.9722 7.64509 23.582 7.10631C23.0433 6.40033 22.3187 6.04733 21.4084 6.04733C20.4608 6.04733 19.7363 6.40033 19.2347 7.10631C18.8445 7.64509 18.6494 8.45326 18.6494 9.53082V13.1536C18.6494 14.2312 18.8445 15.0394 19.2347 15.5782C19.7363 16.2841 20.4608 16.6371 21.4084 16.6371C22.3187 16.6371 23.0433 16.2841 23.582 15.5782C23.9722 15.0765 24.1673 14.2684 24.1673 13.1536ZM29.2114 16.4978H31.0785V6.18667H29.2114V14.0733C28.8026 14.6492 28.4125 14.9372 28.0409 14.9372C27.7622 14.9372 27.6136 14.7886 27.595 14.4913C27.5764 14.4541 27.5672 14.2126 27.5672 13.7667V6.18667H25.7V14.352C25.7 15.0394 25.7557 15.5503 25.8672 15.8847C26.0716 16.3863 26.471 16.6371 27.0655 16.6371C27.7344 16.6371 28.4496 16.2191 29.2114 15.3831V16.4978ZM43.2289 8.02595V34.7791C43.2289 36.99 42.444 38.8804 40.8741 40.4502C39.3042 42.0201 37.4138 42.8051 35.203 42.8051H8.44978C6.23893 42.8051 4.34856 42.0201 2.77867 40.4502C1.20877 38.8804 0.423828 36.99 0.423828 34.7791V8.02595C0.423828 5.8151 1.20877 3.92473 2.77867 2.35484C4.34856 0.784946 6.23893 0 8.44978 0H35.203C37.4138 0 39.3042 0.784946 40.8741 2.35484C42.444 3.92473 43.2289 5.8151 43.2289 8.02595Z" fill="#FFFCF4"/>
</svg>
